<?xml version="1.0" encoding="UTF-8"?>
<svg id="Layer_1" xmlns="http://www.w3.org/2000/svg" width="285.41" height="101.88" version="1.1" viewBox="0 0 285.41 101.88">
  <!-- Generator: Adobe Illustrator 29.5.1, SVG Export Plug-In . SVG Version: 2.1.0 Build 141)  -->
  <defs>
    <style>
      .st0 {
        fill: #f42a41;
      }
    </style>
  </defs>
  <path class="st0" d="M71.53,97.94l-49.94-17.72c-3.87-1.42-6.95-3.77-9.25-7.03-2.29-3.26-3.43-6.88-3.43-10.84V17.9h47.97v-9.63H5.09V2.93h70.26v5.34h-3.83v89.67ZM56.87,83.74v-51.48h-25.67v28.87c0,3.98,1.16,7.58,3.44,10.84s5.36,5.61,9.23,7.03l12.99,4.74Z"/>
  <g>
    <path class="st0" d="M101.55,51.32h-11.96l-.06-5.9h10.44c1.76,0,3.26-.26,4.5-.79,1.24-.53,2.18-1.29,2.82-2.29s.97-2.21.97-3.63c0-1.57-.3-2.85-.9-3.83-.6-.99-1.52-1.71-2.76-2.16s-2.81-.68-4.72-.68h-7.83v40.48h-8.09V25.6h15.92c2.58,0,4.88.25,6.91.74,2.03.49,3.76,1.26,5.19,2.3,1.43,1.04,2.51,2.36,3.25,3.95.74,1.59,1.11,3.48,1.11,5.67,0,1.93-.46,3.7-1.39,5.3-.92,1.6-2.29,2.91-4.09,3.92-1.8,1.01-4.05,1.61-6.74,1.8l-2.58,2.03ZM101.2,72.52h-14.15l3.64-6.41h10.51c1.83,0,3.35-.31,4.58-.92s2.14-1.46,2.75-2.55c.61-1.08.92-2.36.92-3.82s-.27-2.85-.81-3.98-1.39-2-2.55-2.61-2.67-.92-4.54-.92h-9.09l.06-5.9h11.83l1.84,2.22c2.58.09,4.7.66,6.37,1.71,1.66,1.05,2.91,2.42,3.72,4.09s1.22,3.48,1.22,5.41c0,2.99-.65,5.49-1.95,7.51-1.3,2.02-3.16,3.55-5.59,4.59-2.43,1.04-5.35,1.56-8.77,1.56Z"/>
    <path class="st0" d="M132.56,45.1v27.42h-7.77v-34.87h7.32l.45,7.44ZM131.17,53.8l-2.51-.03c.02-2.47.37-4.74,1.05-6.8.68-2.06,1.62-3.83,2.84-5.32s2.67-2.63,4.37-3.43,3.59-1.21,5.67-1.21c1.68,0,3.2.23,4.56.69,1.36.46,2.53,1.21,3.51,2.24s1.72,2.37,2.24,4.01.77,3.66.77,6.04v22.53h-7.8v-22.56c0-1.68-.24-3-.72-3.98-.48-.98-1.18-1.68-2.1-2.09s-2.05-.63-3.4-.63-2.52.28-3.58.84c-1.05.56-1.94,1.32-2.66,2.29-.72.97-1.27,2.08-1.66,3.35-.39,1.27-.58,2.62-.58,4.06Z"/>
    <path class="st0" d="M169.91,23.02v49.5h-7.8V23.02h7.8Z"/>
    <path class="st0" d="M199.2,51.32l.06,4.8h-5.58c-1.44,0-2.71.13-3.8.4-1.1.27-2.01.66-2.74,1.18s-1.28,1.14-1.64,1.87c-.37.73-.55,1.56-.55,2.48s.21,1.77.64,2.53c.43.76,1.06,1.36,1.89,1.79.83.43,1.83.64,3.01.64,1.59,0,2.98-.33,4.17-.98,1.19-.66,2.13-1.46,2.82-2.42.69-.96,1.05-1.86,1.1-2.72l2.51,3.45c-.26.88-.7,1.83-1.32,2.84-.62,1.01-1.43,1.97-2.43,2.88-1,.91-2.19,1.66-3.58,2.24-1.38.58-2.98.87-4.79.87-2.28,0-4.31-.46-6.09-1.37s-3.18-2.15-4.19-3.71c-1.01-1.56-1.51-3.32-1.51-5.3,0-1.85.35-3.49,1.05-4.91.7-1.43,1.73-2.63,3.09-3.59s3.04-1.7,5.01-2.21c1.98-.5,4.23-.76,6.77-.76h6.09ZM198.07,65.53v-16.63c0-1.25-.23-2.32-.68-3.22s-1.13-1.6-2.05-2.09c-.91-.49-2.06-.74-3.43-.74-1.27,0-2.36.21-3.29.64-.92.43-1.64,1.01-2.16,1.74-.52.73-.77,1.56-.77,2.48h-7.73c0-1.37.33-2.71,1-4s1.63-2.44,2.9-3.45c1.27-1.01,2.78-1.8,4.54-2.38s3.74-.87,5.93-.87c2.62,0,4.95.44,6.98,1.32,2.03.88,3.63,2.21,4.8,3.98,1.17,1.77,1.76,3.99,1.76,6.65v15.5c0,1.59.11,3.01.34,4.27.23,1.26.55,2.35.98,3.27v.52h-7.96c-.37-.84-.65-1.91-.85-3.21-.21-1.3-.31-2.56-.31-3.79Z"/>
    <path class="st0" d="M221.69,45.1v27.42h-7.77v-34.87h7.32l.45,7.44ZM220.31,53.8l-2.51-.03c.02-2.47.37-4.74,1.05-6.8.68-2.06,1.62-3.83,2.84-5.32s2.67-2.63,4.37-3.43,3.59-1.21,5.67-1.21c1.68,0,3.2.23,4.56.69,1.36.46,2.53,1.21,3.51,2.24s1.72,2.37,2.24,4.01.77,3.66.77,6.04v22.53h-7.8v-22.56c0-1.68-.24-3-.72-3.98-.48-.98-1.18-1.68-2.1-2.09s-2.05-.63-3.4-.63-2.52.28-3.58.84c-1.05.56-1.94,1.32-2.66,2.29-.72.97-1.27,2.08-1.66,3.35-.39,1.27-.58,2.62-.58,4.06Z"/>
    <path class="st0" d="M249.38,55.47v-.68c0-2.64.32-5.05.97-7.23.64-2.18,1.57-4.06,2.77-5.64s2.66-2.79,4.38-3.64c1.72-.85,3.66-1.27,5.83-1.27s4.18.41,5.78,1.22c1.6.82,2.94,1.98,4.01,3.5s1.92,3.32,2.53,5.41c.61,2.09,1.07,4.42,1.37,6.98v2.16c-.28,2.49-.75,4.77-1.42,6.83s-1.55,3.85-2.64,5.35c-1.1,1.5-2.44,2.66-4.04,3.48s-3.49,1.22-5.66,1.22-4.04-.44-5.75-1.32c-1.71-.88-3.17-2.12-4.38-3.71-1.21-1.59-2.14-3.46-2.79-5.62s-.97-4.51-.97-7.04ZM273.06,37.65h7.06v33.9c0,3.14-.67,5.8-2,7.99s-3.19,3.86-5.58,5.01c-2.38,1.15-5.15,1.72-8.28,1.72-1.33,0-2.81-.19-4.43-.58s-3.19-1-4.71-1.85c-1.51-.85-2.78-1.96-3.79-3.34l3.64-4.58c1.25,1.48,2.62,2.57,4.12,3.25,1.5.69,3.08,1.03,4.74,1.03,1.78,0,3.3-.33,4.56-.98,1.26-.66,2.23-1.62,2.92-2.88.69-1.27,1.03-2.81,1.03-4.64v-26.17l.71-7.9ZM257.14,54.8v.68c0,1.59.16,3.07.47,4.45.31,1.38.79,2.58,1.45,3.63.66,1.04,1.49,1.86,2.51,2.45,1.02.59,2.23.89,3.63.89,1.83,0,3.32-.39,4.5-1.16s2.07-1.82,2.71-3.14,1.08-2.8,1.34-4.43v-5.83c-.13-1.27-.39-2.45-.79-3.54-.4-1.1-.93-2.06-1.6-2.88-.67-.83-1.5-1.47-2.51-1.93-1.01-.46-2.2-.69-3.58-.69s-2.61.3-3.64.9c-1.03.6-1.88,1.43-2.53,2.48-.66,1.05-1.14,2.28-1.47,3.67-.32,1.4-.48,2.89-.48,4.48Z"/>
  </g>
</svg>